<?xml version="1.0" encoding="utf-8"?>
<svg version="1.1" id="Livello_1" xmlns="http://www.w3.org/2000/svg" x="0px" y="0px"
	 viewBox="0 0 192 192" xml:space="preserve">
<style type="text/css">
	.st0{fill:#6F6F6F;}
	.st1{fill:#0066B1;}
</style>
<rect width="192" height="192" fill="#fff"/>
<g id="BMW-logo-grey-fallback-53px">
	<g id="BMW-logo">
		<g id="BMW-logo-fallback">
			<g id="BMW_Grey-Colour_RGB-2">
				<g id="BMW_Grey-Colour_RGB">
					<path id="Shape" class="st0" d="M96,8.5c-48.6,0-88,39.4-88,88s39.4,88,88,88s88-39.4,88-88S144.6,8.5,96,8.5L96,8.5z
						 M178.3,96.5c0,45.4-36.8,82.3-82.3,82.3s-82.3-36.8-82.3-82.3S50.6,14.2,96,14.2S178.3,51.1,178.3,96.5z"/>
					<path id="Shape_1_" class="st0" d="M96,44.4v2.9l0,0c27.2,0,49.3,22.1,49.3,49.3h2.9C148.1,67.7,124.8,44.4,96,44.4L96,44.4
						 M96,145.8c-27.2,0-49.3-22.1-49.3-49.3h-2.9c0,28.8,23.3,52.1,52.1,52.1"/>
					<g id="Group" transform="translate(7.197531, 3.271605)">
						<path id="W_61_" class="st0" d="M130.9,56.1c1.2,1.3,2.9,3.3,3.9,4.6l17.8-11.2c-0.9-1.2-2.3-2.9-3.4-4.1L138,52.7l-0.8,0.7
							l0.6-0.8l5-9.9l-3.5-3.5l-9.9,4.9l-0.8,0.6l0.7-0.8l7.5-11.2c-1.3-1.1-2.6-2.1-4.2-3.4L121.1,47c1.4,1.1,3.3,2.7,4.5,3.8
							l10.6-5.5l0.7-0.5l-0.5,0.7L130.9,56.1z"/>
						<path id="M_61_" class="st0" d="M90.5,33.7l4.9-10.8l0.3-1l-0.1,1l0.5,14.5c1.7,0.2,3.5,0.4,5.2,0.7l-0.8-21.4
							c-2.4-0.3-4.8-0.5-7.3-0.6l-4.8,11.8l-0.2,0.9l-0.2-0.9l-4.8-11.8c-2.4,0.1-4.8,0.3-7.3,0.6l-0.8,21.4
							c1.7-0.3,3.5-0.5,5.2-0.7L81,22.9l-0.1-1l0.3,1l4.9,10.8H90.5z"/>
						<path id="B_x5F_22d_61_" class="st0" d="M51.2,50.8c2.8-2.9,4.4-6.3,1.6-9.6c-1.5-1.8-4.1-2.1-6.2-1.3L46.3,40l0.1-0.2
							c0.3-0.8,0.5-3.5-1.8-5.3c-1.1-0.9-2.5-1.2-3.9-1.1c-2.6,0.3-4.7,2.1-10.2,8.2c-1.7,1.8-4.1,4.8-5.6,6.7l15.2,14.3
							C45.2,57,47.2,54.9,51.2,50.8z M31.4,47.3c3.1-3.7,6.3-7.1,7.8-8.4c0.5-0.4,1-0.8,1.6-1c1-0.3,2,0.4,2.3,1.4
							c0.2,1-0.4,2-1.1,2.8c-1.6,1.8-7.6,8-7.6,8L31.4,47.3z M37.3,52.9c0,0,5.8-6.1,7.7-8c0.7-0.8,1.2-1.2,1.7-1.5
							c0.7-0.3,1.4-0.4,2,0c0.6,0.4,0.9,1.2,0.8,1.9c-0.2,0.9-0.9,1.7-1.5,2.3c-0.8,0.8-7.7,8.1-7.7,8.1L37.3,52.9z"/>
					</g>
					<path id="Path" class="st1" d="M96,44.4v52.1H43.9C43.9,67.7,67.2,44.4,96,44.4z"/>
					<path id="Path_1_" class="st1" d="M148.1,96.5c0,28.8-23.3,52.1-52.1,52.1V96.5H148.1z"/>
				</g>
			</g>
		</g>
	</g>
</g>
</svg>
